<svg width="24" height="24" viewBox="0 0 24 24" fill="none" xmlns="http://www.w3.org/2000/svg">
<g id="Icon">
<g id="Vector">
<path d="M13 2H4C3.44772 2 3 2.44772 3 3V15C3 15.5523 3.44772 16 4 16H5V18H4C2.34315 18 1 16.6569 1 15V3C1 1.34315 2.34315 0 4 0H13C14.6569 0 16 1.34315 16 3V4H14V3C14 2.44772 13.5523 2 13 2Z" fill="#3C4346"/>
<path fill-rule="evenodd" clip-rule="evenodd" d="M8 9C8 7.34315 9.34315 6 11 6H20C21.6569 6 23 7.34315 23 9V21C23 22.6569 21.6569 24 20 24H11C9.34315 24 8 22.6569 8 21V9ZM11 8H20C20.5523 8 21 8.44771 21 9V21C21 21.5523 20.5523 22 20 22H11C10.4477 22 10 21.5523 10 21V9C10 8.44772 10.4477 8 11 8Z" fill="#3C4346"/>
</g>
</g>
</svg>
