<svg width="224" height="40" viewBox="0 0 224 40" fill="none" xmlns="http://www.w3.org/2000/svg">
<path d="M26.0232 11.8232C25.9139 11.639 25.5312 11.3628 24.8751 10.9945C24.2191 10.5893 23.399 10.1657 22.415 9.72376C21.4309 9.28177 20.3557 8.89503 19.1894 8.56353C18.0231 8.23204 16.8568 8.0663 15.6905 8.0663C14.1597 8.0663 12.9752 8.34254 12.1369 8.89503C11.2986 9.41068 10.8795 10.221 10.8795 11.326C10.8795 12.2099 11.1893 12.9098 11.8089 13.4254C12.4649 13.9411 13.3943 14.4015 14.5971 14.8066C15.7998 15.175 17.2759 15.6169 19.0254 16.1326C21.5038 16.7956 23.6542 17.6059 25.4765 18.5635C27.2989 19.4843 28.6838 20.6814 29.6315 22.1547C30.6155 23.628 31.1076 25.5801 31.1076 28.011C31.1076 30.221 30.7067 32.0994 29.9048 33.6464C29.103 35.1565 28.0096 36.3904 26.6246 37.3481C25.276 38.2689 23.727 38.9503 21.9776 39.3923C20.2281 39.7974 18.424 40 16.5652 40C14.6699 40 12.72 39.8158 10.7154 39.4475C8.7473 39.0424 6.85205 38.4899 5.0297 37.7901C3.20734 37.0534 1.53078 36.1694 0 35.1381L3.93628 27.2376C4.08207 27.4217 4.55588 27.7716 5.35772 28.2873C6.15956 28.7661 7.14363 29.2818 8.30993 29.8343C9.51269 30.3499 10.843 30.8103 12.3009 31.2155C13.7588 31.6206 15.2349 31.8232 16.7292 31.8232C18.3329 31.8232 19.5174 31.5654 20.2828 31.0497C21.0846 30.5341 21.4855 29.8158 21.4855 28.895C21.4855 27.9005 21.0664 27.1271 20.2281 26.5746C19.4263 26.0221 18.3147 25.5249 16.8932 25.0829C15.5082 24.6409 13.9046 24.1436 12.0822 23.5912C9.71315 22.8545 7.745 22.0258 6.17778 21.105C4.647 20.1842 3.49892 19.0608 2.73353 17.7348C2.00459 16.4088 1.64012 14.7514 1.64012 12.7624C1.64012 10 2.27794 7.67956 3.55359 5.80111C4.86568 3.88582 6.61514 2.44935 8.80197 1.49171C10.9888 0.497238 13.3761 0 15.9638 0C17.7862 0 19.5356 0.220994 21.2122 0.662981C22.9252 1.10497 24.5107 1.65746 25.9685 2.32044C27.4629 2.98343 28.7932 3.64641 29.9595 4.30939L26.0232 11.8232Z" fill="url(#paint0_linear_1841_23324)"/>
<path d="M41.3147 0.331491L49.6794 17.6796L58.1533 0.331491H67.9393L54.1077 26.1878V39.558H45.1964V26.0773L31.5834 0.331491H41.3147Z" fill="url(#paint1_linear_1841_23324)"/>
<path d="M80.5183 17.1271V39.558H71.5523V0.331491H78.6595L96.6461 23.4254V0.331491H105.612V39.558H98.2862L80.5183 17.1271Z" fill="url(#paint2_linear_1841_23324)"/>
<path d="M130.038 39.8895C127.123 39.8895 124.48 39.337 122.111 38.232C119.778 37.0902 117.756 35.5801 116.043 33.7017C114.366 31.7864 113.072 29.6501 112.161 27.2928C111.25 24.8987 110.794 22.4309 110.794 19.8895C110.794 17.2744 111.268 14.7882 112.216 12.4309C113.2 10.0737 114.548 7.97422 116.261 6.1326C118.011 4.25414 120.07 2.78085 122.439 1.7127C124.808 0.644565 127.396 0.110496 130.202 0.110496C133.082 0.110496 135.688 0.681398 138.02 1.8232C140.389 2.92817 142.412 4.4383 144.089 6.35359C145.802 8.26888 147.114 10.4236 148.025 12.8177C148.936 15.175 149.392 17.5875 149.392 20.0552C149.392 22.6703 148.918 25.1565 147.97 27.5138C147.023 29.8711 145.674 31.9889 143.925 33.8674C142.175 35.709 140.116 37.1823 137.747 38.2873C135.414 39.3554 132.845 39.8895 130.038 39.8895ZM119.924 20C119.924 21.5101 120.143 22.9834 120.58 24.4199C121.018 25.8195 121.655 27.0718 122.494 28.1768C123.368 29.2818 124.444 30.1657 125.719 30.8287C126.995 31.4917 128.453 31.8232 130.093 31.8232C131.806 31.8232 133.3 31.4917 134.576 30.8287C135.852 30.1289 136.909 29.2081 137.747 28.0663C138.585 26.9245 139.205 25.6538 139.606 24.2541C140.043 22.8177 140.262 21.3628 140.262 19.8895C140.262 18.3794 140.043 16.9245 139.606 15.5249C139.168 14.1252 138.512 12.8729 137.638 11.768C136.763 10.6261 135.688 9.74217 134.412 9.11602C133.136 8.48987 131.697 8.1768 130.093 8.1768C128.38 8.1768 126.886 8.50829 125.61 9.17127C124.371 9.83425 123.314 10.7366 122.439 11.8785C121.601 12.9834 120.963 14.2541 120.526 15.6906C120.125 17.0902 119.924 18.5267 119.924 20Z" fill="url(#paint3_linear_1841_23324)"/>
<path d="M154.573 39.558V0.331491H172.067C173.89 0.331491 175.566 0.718231 177.097 1.49171C178.664 2.22836 180.013 3.24125 181.143 4.53039C182.272 5.78269 183.147 7.20074 183.767 8.78453C184.423 10.3683 184.751 11.9705 184.751 13.5912C184.751 15.2118 184.496 16.7587 183.985 18.232C183.475 19.6685 182.746 20.9761 181.799 22.1547C180.851 23.2965 179.721 24.2357 178.409 24.9724L186.938 39.558H177.042L169.607 26.9061H163.539V39.558H154.573ZM163.539 19.0055H171.739C172.468 19.0055 173.106 18.7845 173.653 18.3425C174.236 17.8637 174.71 17.2192 175.074 16.4088C175.439 15.5985 175.621 14.6593 175.621 13.5912C175.621 12.523 175.402 11.6022 174.965 10.8287C174.564 10.0184 174.054 9.39226 173.434 8.95028C172.814 8.50829 172.158 8.28729 171.466 8.28729H163.539V19.0055Z" fill="url(#paint4_linear_1841_23324)"/>
<path d="M200.984 0.331491H210.66L224 39.558H214.815L211.808 30.7735H199.726L196.774 39.558H187.589L200.984 0.331491ZM210.332 24.5304L205.795 9.44751L201.148 24.5304H210.332Z" fill="url(#paint5_linear_1841_23324)"/>
<defs>
<linearGradient id="paint0_linear_1841_23324" x1="112" y1="0" x2="112" y2="40" gradientUnits="userSpaceOnUse">
<stop stop-color="#778395"/>
<stop offset="1" stop-color="#555F70"/>
</linearGradient>
<linearGradient id="paint1_linear_1841_23324" x1="112" y1="0" x2="112" y2="40" gradientUnits="userSpaceOnUse">
<stop stop-color="#778395"/>
<stop offset="1" stop-color="#555F70"/>
</linearGradient>
<linearGradient id="paint2_linear_1841_23324" x1="112" y1="0" x2="112" y2="40" gradientUnits="userSpaceOnUse">
<stop stop-color="#778395"/>
<stop offset="1" stop-color="#555F70"/>
</linearGradient>
<linearGradient id="paint3_linear_1841_23324" x1="112" y1="0" x2="112" y2="40" gradientUnits="userSpaceOnUse">
<stop stop-color="#778395"/>
<stop offset="1" stop-color="#555F70"/>
</linearGradient>
<linearGradient id="paint4_linear_1841_23324" x1="112" y1="0" x2="112" y2="40" gradientUnits="userSpaceOnUse">
<stop stop-color="#778395"/>
<stop offset="1" stop-color="#555F70"/>
</linearGradient>
<linearGradient id="paint5_linear_1841_23324" x1="112" y1="0" x2="112" y2="40" gradientUnits="userSpaceOnUse">
<stop stop-color="#778395"/>
<stop offset="1" stop-color="#555F70"/>
</linearGradient>
</defs>
</svg>
