<svg width="88" height="80" viewBox="0 0 88 80" fill="none" xmlns="http://www.w3.org/2000/svg">
<path d="M10.9092 37.1485C10.867 37.0782 10.7193 36.9727 10.466 36.832C10.2128 36.6772 9.89621 36.5154 9.51632 36.3466C9.13643 36.1777 8.72137 36.03 8.27113 35.9033C7.82089 35.7767 7.37065 35.7134 6.92041 35.7134C6.32947 35.7134 5.87219 35.8189 5.54858 36.03C5.22498 36.227 5.06317 36.5365 5.06317 36.9586C5.06317 37.2963 5.18277 37.5636 5.42196 37.7606C5.67521 37.9576 6.034 38.1334 6.49831 38.2882C6.96262 38.4289 7.53245 38.5978 8.20781 38.7947C9.16457 39.048 9.9947 39.3575 10.6982 39.7234C11.4017 40.0751 11.9364 40.5324 12.3022 41.0952C12.6821 41.658 12.872 42.4037 12.872 43.3323C12.872 44.1765 12.7172 44.8941 12.4077 45.485C12.0982 46.0619 11.6761 46.5332 11.1414 46.899C10.6208 47.2508 10.0228 47.5111 9.34748 47.6799C8.67212 47.8347 7.97566 47.9121 7.25809 47.9121C6.52645 47.9121 5.77371 47.8417 4.99986 47.701C4.24008 47.5463 3.50844 47.3352 2.80494 47.0679C2.10144 46.7865 1.45422 46.4488 0.863281 46.0548L2.38284 43.0368C2.43912 43.1072 2.62203 43.2408 2.93157 43.4378C3.24111 43.6207 3.621 43.8177 4.07124 44.0288C4.53555 44.2257 5.0491 44.4016 5.6119 44.5564C6.1747 44.7112 6.74453 44.7885 7.3214 44.7885C7.94048 44.7885 8.39776 44.6901 8.69323 44.4931C9.00276 44.2961 9.15753 44.0217 9.15753 43.67C9.15753 43.2901 8.99573 42.9946 8.67212 42.7836C8.36258 42.5725 7.93345 42.3826 7.38472 42.2137C6.85006 42.0449 6.23098 41.855 5.52748 41.6439C4.61293 41.3625 3.85315 41.0459 3.24814 40.6942C2.6572 40.3424 2.214 39.9133 1.91853 39.4068C1.63713 38.9003 1.49643 38.2671 1.49643 37.5073C1.49643 36.4521 1.74266 35.5657 2.2351 34.8481C2.74162 34.1165 3.41698 33.5677 4.26118 33.2019C5.10538 32.822 6.02696 32.6321 7.02593 32.6321C7.72943 32.6321 8.40479 32.7165 9.05201 32.8853C9.7133 33.0542 10.3253 33.2652 10.8881 33.5185C11.465 33.7717 11.9786 34.025 12.4288 34.2783L10.9092 37.1485Z" fill="#FDFDFF"/>
<path d="M16.8124 32.7587L20.0414 39.3857L23.3127 32.7587H27.0905L21.7509 42.6358V47.7432H18.3108V42.5936L13.0557 32.7587H16.8124Z" fill="#FDFDFF"/>
<path d="M31.9465 39.1746V47.7432H28.4852V32.7587H31.2289L38.1724 41.5806V32.7587H41.6336V47.7432H38.8056L31.9465 39.1746Z" fill="#FDFDFF"/>
<path d="M51.0631 47.8699C49.9375 47.8699 48.9174 47.6588 48.0029 47.2367C47.1024 46.8006 46.3215 46.2237 45.6602 45.5061C45.013 44.7745 44.5135 43.9584 44.1618 43.0579C43.81 42.1434 43.6342 41.2007 43.6342 40.2299C43.6342 39.2309 43.8171 38.2812 44.1829 37.3807C44.5628 36.4802 45.0834 35.6782 45.7447 34.9747C46.42 34.2572 47.215 33.6944 48.1295 33.2863C49.0441 32.8783 50.043 32.6743 51.1264 32.6743C52.2379 32.6743 53.2439 32.8924 54.1444 33.3285C55.059 33.7506 55.8399 34.3275 56.4871 35.0592C57.1484 35.7908 57.6549 36.6139 58.0066 37.5284C58.3584 38.4289 58.5343 39.3505 58.5343 40.2932C58.5343 41.2922 58.3514 42.2419 57.9855 43.1424C57.6197 44.0428 57.0991 44.8519 56.4238 45.5694C55.7484 46.2729 54.9535 46.8357 54.0389 47.2578C53.1384 47.6659 52.1465 47.8699 51.0631 47.8699ZM47.1587 40.2721C47.1587 40.8489 47.2431 41.4117 47.4119 41.9605C47.5808 42.4951 47.827 42.9735 48.1506 43.3956C48.4883 43.8177 48.9034 44.1554 49.3958 44.4087C49.8883 44.6619 50.4511 44.7885 51.0842 44.7885C51.7455 44.7885 52.3224 44.6619 52.8148 44.4087C53.3073 44.1413 53.7153 43.7896 54.0389 43.3534C54.3625 42.9172 54.6017 42.4318 54.7565 41.8972C54.9253 41.3484 55.0097 40.7927 55.0097 40.2299C55.0097 39.653 54.9253 39.0972 54.7565 38.5626C54.5876 38.0279 54.3344 37.5495 53.9967 37.1274C53.659 36.6913 53.2439 36.3536 52.7515 36.1144C52.2591 35.8752 51.7033 35.7556 51.0842 35.7556C50.4229 35.7556 49.8461 35.8822 49.3536 36.1355C48.8752 36.3888 48.4672 36.7335 48.1295 37.1696C47.8059 37.5917 47.5597 38.0772 47.3908 38.6259C47.2361 39.1606 47.1587 39.7093 47.1587 40.2721Z" fill="#FDFDFF"/>
<path d="M60.5343 47.7432V32.7587H67.2879C67.9914 32.7587 68.6386 32.9064 69.2295 33.2019C69.8345 33.4833 70.3551 33.8702 70.7913 34.3627C71.2275 34.8411 71.5652 35.3828 71.8043 35.9878C72.0576 36.5928 72.1842 37.2048 72.1842 37.8239C72.1842 38.443 72.0857 39.0339 71.8888 39.5967C71.6918 40.1454 71.4104 40.6449 71.0446 41.0952C70.6787 41.5313 70.2426 41.8901 69.7361 42.1715L73.0284 47.7432H69.2084L66.3382 42.9102H63.9955V47.7432H60.5343ZM63.9955 39.8922H67.1612C67.4426 39.8922 67.6889 39.8078 67.8999 39.6389C68.125 39.456 68.308 39.2098 68.4486 38.9003C68.5893 38.5907 68.6597 38.2319 68.6597 37.8239C68.6597 37.4159 68.5753 37.0641 68.4064 36.7687C68.2517 36.4591 68.0547 36.2199 67.8155 36.0511C67.5763 35.8822 67.3231 35.7978 67.0557 35.7978H63.9955V39.8922Z" fill="#FDFDFF"/>
<path d="M78.4508 32.7587H82.1863L87.336 47.7432H83.7903L82.6295 44.3875H77.9653L76.8257 47.7432H73.28L78.4508 32.7587ZM82.0597 42.0027L80.308 36.241L78.5141 42.0027H82.0597Z" fill="#FDFDFF"/>
</svg>
