<svg width="80" height="80" viewBox="0 0 80 80" fill="none" xmlns="http://www.w3.org/2000/svg">
<g id="Logo">
<g id="Logo_2">
<path d="M9.97988 36.5649C10.2331 36.7056 10.3808 36.811 10.423 36.8814L11.9421 34.0119C11.492 33.7587 10.9786 33.5056 10.4019 33.2524C9.83922 32.9992 9.22735 32.7882 8.56625 32.6194C7.91922 32.4506 7.24406 32.3662 6.54076 32.3662C5.54208 32.3662 4.62076 32.5561 3.7768 32.9359C2.93285 33.3016 2.25768 33.8502 1.75131 34.5816C1.259 35.299 1.01285 36.1851 1.01285 37.2401C1.01285 37.9996 1.15351 38.6326 1.43483 39.139C1.73021 39.6453 2.17329 40.0743 2.76406 40.426C3.36889 40.7776 4.12845 41.0941 5.04274 41.3754C5.74603 41.5864 6.36494 41.7763 6.89944 41.9451C7.44801 42.1139 7.87702 42.3038 8.18647 42.5148C8.50999 42.7258 8.67175 43.0212 8.67175 43.4009C8.67175 43.7526 8.51702 44.0269 8.20757 44.2238C7.91219 44.4207 7.45505 44.5192 6.83614 44.5192C6.25944 44.5192 5.68977 44.4418 5.12713 44.2871C4.5645 44.1324 4.05109 43.9565 3.58691 43.7596C3.1368 43.5486 2.75702 43.3517 2.44757 43.1688C2.13812 42.9719 1.95527 42.8383 1.899 42.768L0.379883 45.7851C0.97065 46.179 1.61768 46.5165 2.32098 46.7979C3.02428 47.0651 3.75571 47.2761 4.51527 47.4308C5.28889 47.5715 6.04142 47.6418 6.77285 47.6418C7.49021 47.6418 8.18647 47.5645 8.86164 47.4097C9.5368 47.2409 10.1346 46.9807 10.655 46.6291C11.1896 46.2634 11.6115 45.7921 11.921 45.2154C12.2304 44.6247 12.3852 43.9073 12.3852 43.0634C12.3852 42.135 12.1953 41.3895 11.8155 40.8269C11.4498 40.2642 10.9153 39.8071 10.212 39.4554C9.50867 39.0897 8.67878 38.7803 7.7223 38.5271C7.04713 38.3302 6.47746 38.1614 6.01329 38.0207C5.54911 37.866 5.19043 37.6902 4.93724 37.4932C4.69812 37.2963 4.57856 37.0291 4.57856 36.6915C4.57856 36.2695 4.74032 35.9601 5.06384 35.7631C5.38735 35.5521 5.8445 35.4466 6.43527 35.4466C6.88538 35.4466 7.33549 35.5099 7.7856 35.6365C8.23571 35.7631 8.65065 35.9108 9.03043 36.0796C9.41021 36.2484 9.72669 36.4102 9.97988 36.5649Z" fill="#FDFDFF"/>
<path d="M14.4156 32.4928V47.473H17.8758V32.4928H14.4156Z" fill="#FDFDFF"/>
<path d="M24.2014 38.9069V47.473H20.7411V32.4928H23.484L30.4255 41.3121V32.4928H33.8858V47.473H31.0585L24.2014 38.9069Z" fill="#FDFDFF"/>
<path fill-rule="evenodd" clip-rule="evenodd" d="M40.2532 46.9667C41.1675 47.3886 42.1872 47.5996 43.3125 47.5996C44.3956 47.5996 45.3872 47.3957 46.2875 46.9878C47.2018 46.5658 47.9965 46.0031 48.6716 45.2998C49.3468 44.5825 49.8672 43.7737 50.233 42.8735C50.5987 41.9732 50.7815 41.0238 50.7815 40.0251C50.7815 39.0827 50.6057 38.1614 50.2541 37.2612C49.9024 36.3469 49.396 35.524 48.7349 34.7926C48.0879 34.0612 47.3072 33.4845 46.393 33.0625C45.4927 32.6264 44.487 32.4084 43.3758 32.4084C42.2927 32.4084 41.2941 32.6124 40.3798 33.0203C39.4655 33.4282 38.6708 33.9908 37.9956 34.7082C37.3345 35.4115 36.8141 36.2132 36.4343 37.1135C36.0686 38.0137 35.8857 38.9631 35.8857 39.9618C35.8857 40.9324 36.0615 41.8748 36.4132 42.7891C36.7648 43.6893 37.2642 44.5051 37.9112 45.2365C38.5723 45.9539 39.353 46.5306 40.2532 46.9667ZM39.6624 41.6919C39.4936 41.1434 39.4092 40.5807 39.4092 40.004C39.4092 39.4414 39.4866 38.8928 39.6413 38.3583C39.8101 37.8097 40.0563 37.3245 40.3798 36.9025C40.7174 36.4664 41.1253 36.1218 41.6035 35.8686C42.0958 35.6154 42.6725 35.4888 43.3336 35.4888C43.9525 35.4888 44.5081 35.6084 45.0004 35.8475C45.4927 36.0867 45.9077 36.4242 46.2453 36.8603C46.5828 37.2823 46.836 37.7605 47.0048 38.295C47.1736 38.8295 47.258 39.3851 47.258 39.9618C47.258 40.5245 47.1736 41.0801 47.0048 41.6286C46.8501 42.1631 46.611 42.6484 46.2875 43.0845C45.9639 43.5205 45.556 43.8721 45.0637 44.1394C44.5714 44.3926 43.9947 44.5192 43.3336 44.5192C42.7006 44.5192 42.138 44.3926 41.6457 44.1394C41.1534 43.8862 40.7385 43.5486 40.4009 43.1267C40.0774 42.7047 39.8312 42.2264 39.6624 41.6919Z" fill="#FDFDFF"/>
<path fill-rule="evenodd" clip-rule="evenodd" d="M52.781 47.473V32.4928H59.5326C60.2359 32.4928 60.883 32.6405 61.4737 32.9359C62.0786 33.2172 62.599 33.604 63.035 34.0963C63.4711 34.5746 63.8087 35.1161 64.0478 35.7209C64.301 36.3258 64.4276 36.9376 64.4276 37.5565C64.4276 38.1754 64.3291 38.7662 64.1322 39.3288C63.9353 39.8774 63.6539 40.3768 63.2882 40.8269C62.9225 41.2629 62.4865 41.6216 61.9801 41.9029L65.2715 47.473H61.4526L58.5832 42.6414H56.2412V47.473H52.781ZM56.2412 39.6242H59.406C59.6874 39.6242 59.9335 39.5398 60.1445 39.371C60.3696 39.1882 60.5524 38.942 60.6931 38.6326C60.8337 38.3231 60.9041 37.9645 60.9041 37.5565C60.9041 37.1486 60.8197 36.797 60.6509 36.5016C60.4961 36.1921 60.2992 35.953 60.0601 35.7842C59.821 35.6154 59.5678 35.531 59.3005 35.531H56.2412V39.6242Z" fill="#FDFDFF"/>
<path fill-rule="evenodd" clip-rule="evenodd" d="M74.4268 32.4928H70.6923L65.5231 47.473H69.0677L70.207 44.1183H74.8699L76.0303 47.473H79.5749L74.4268 32.4928ZM72.549 35.9741L74.3002 41.7341H70.7556L72.549 35.9741Z" fill="#FDFDFF"/>
</g>
</g>
</svg>
