<svg width="100" height="100" viewBox="0 0 100 100" fill="none" xmlns="http://www.w3.org/2000/svg">
<g id="Group 6">
<path id="Ellipse 37" d="M100 50C100 77.6142 77.6142 100 50 100C22.3858 100 0 77.6142 0 50C0 22.3858 22.3858 0 50 0C77.6142 0 100 22.3858 100 50ZM17 50C17 68.2254 31.7746 83 50 83C68.2254 83 83 68.2254 83 50C83 31.7746 68.2254 17 50 17C31.7746 17 17 31.7746 17 50Z" fill="#FAFDFF"/>
<path id="Ellipse 38" d="M63.0222 98.2746C74.5164 95.1739 84.5271 88.0736 91.2537 78.2509C97.9802 68.4281 100.981 56.5276 99.7167 44.6898C98.4523 32.852 93.0054 21.8538 84.3559 13.6734C75.7063 5.49306 64.4218 0.667416 52.5319 0.0644531L51.6709 17.0426C59.5182 17.4406 66.966 20.6255 72.6747 26.0245C78.3834 31.4236 81.9783 38.6824 82.8129 46.4953C83.6474 54.3083 81.6668 62.1627 77.2273 68.6457C72.7878 75.1287 66.1807 79.8149 58.5945 81.8613L63.0222 98.2746Z" fill="url(#paint0_linear_651_6743)"/>
</g>
<defs>
<linearGradient id="paint0_linear_651_6743" x1="59" y1="94" x2="45" y2="4" gradientUnits="userSpaceOnUse">
<stop stop-color="#0093F0"/>
<stop offset="1" stop-color="#0093F0" stop-opacity="0.44"/>
</linearGradient>
</defs>
</svg>
