<svg width="24" height="24" viewBox="0 0 24 24" fill="none" xmlns="http://www.w3.org/2000/svg">
<path fill-rule="evenodd" clip-rule="evenodd" d="M22.9998 6.41418L7.09075 22.3233L0.999756 23.0001L1.67653 16.9091L17.5856 0.999971C18.3667 0.218922 19.633 0.218922 20.4141 0.999971L22.9998 3.58576C23.7809 4.36681 23.7809 5.63314 22.9998 6.41418ZM6.17261 20.413L17.7927 8.79289L15.2069 6.20711L3.58682 17.8272L3.43723 19.1735L4.82628 20.5626L6.17261 20.413ZM17.3282 4.08579L19.914 6.67157L21.5856 4.99997L18.9998 2.41418L17.3282 4.08579Z" fill="#0093F0" fill-opacity="0.16"/>
<path fill-rule="evenodd" clip-rule="evenodd" d="M22.9998 6.41418L7.09075 22.3233L0.999756 23.0001L1.67653 16.9091L17.5856 0.999971C18.3667 0.218922 19.633 0.218922 20.4141 0.999971L22.9998 3.58576C23.7809 4.36681 23.7809 5.63314 22.9998 6.41418ZM6.17261 20.413L17.7927 8.79289L15.2069 6.20711L3.58682 17.8272L3.43723 19.1735L4.82628 20.5626L6.17261 20.413ZM17.3282 4.08579L19.914 6.67157L21.5856 4.99997L18.9998 2.41418L17.3282 4.08579Z" fill="#0093F0"/>
</svg>
