<svg width="24" height="24" viewBox="0 0 24 24" fill="none" xmlns="http://www.w3.org/2000/svg">
<g id="Icon" opacity="0.7">
<g id="Vector">
<path fill-rule="evenodd" clip-rule="evenodd" d="M7 5H11V6H7V5ZM11 10H7V9H11V10ZM17 13V14H7.00063L7.00007 13H17ZM7 17H14V18H7V17ZM6 2C4.89543 2 4 2.89543 4 4V20C4 21.1046 4.89543 22 6 22H18C19.1046 22 20 21.1046 20 20V4C20 2.89543 19.1046 2 18 2H6ZM3 4C3 2.34315 4.34315 1 6 1H18C19.6569 1 21 2.34315 21 4V20C21 21.6569 19.6569 23 18 23H6C4.34315 23 3 21.6569 3 20V4Z" fill="#A9A9A9"/>
<path d="M17 5H13V11H17V5Z" fill="#A9A9A9"/>
</g>
</g>
</svg>
