<svg width="24" height="24" viewBox="0 0 24 24" fill="none" xmlns="http://www.w3.org/2000/svg">
<g id="Icon" opacity="0.7">
<g id="Vector">
<path fill-rule="evenodd" clip-rule="evenodd" d="M11 11C11 12.6569 12.3431 14 14 14H20C21.6569 14 23 12.6569 23 11V3C23 1.34315 21.6569 0 20 0H14C12.3431 0 11 1.34315 11 3V11ZM12 11C12 12.1046 12.8954 13 14 13H20C21.1046 13 22 12.1046 22 11V3C22 1.89543 21.1046 1 20 1H14C12.8954 1 12 1.89543 12 3V11Z" fill="#A9A9A9"/>
<path d="M9 5C7.34315 5 6 6.34315 6 8V16C6 17.6569 7.34315 19 9 19H15C16.6569 19 18 17.6569 18 16H17C17 17.1046 16.1046 18 15 18H9C7.89543 18 7 17.1046 7 16V8C7 6.89543 7.89543 6 9 6V5Z" fill="#A9A9A9"/>
<path d="M1 13C1 11.3431 2.34315 10 4 10V11C2.89543 11 2 11.8954 2 13V21C2 22.1046 2.89543 23 4 23H10C11.1046 23 12 22.1046 12 21H13C13 22.6569 11.6569 24 10 24H4C2.34315 24 1 22.6569 1 21V13Z" fill="#A9A9A9"/>
</g>
</g>
</svg>
